# xmcd
#
# Track frame offsets:
# 150
# 9447
# 21982
# 40316
# 51462
# 65172
# 79583
# 96171
# 109631
# 124789
# 139377
# 151869
# 165713
# 178631
#
# Disc length: 2635 seconds
#
#
# Revision: 0
# Processed by: cddbd v1.5.2PL0 Copyright (c) Steve Scherf et al.
# Submitted via: FreeRIP 2.96 
#
DISCID=bb0a490e
DTITLE=Evergreen - Dream Reel
DYEAR=2003
DGENRE=Bluegrass
TTITLE0=Let's Talk About Love
TTITLE1=Lonesome Pine
TTITLE2=River and the Rain
TTITLE3=Ossippee Run
TTITLE4=Down A Winding River
TTITLE5=Bad Case of Loving You
TTITLE6=Liza Brown
TTITLE7=You Put the Blue in Me
TTITLE8=Come Play the Fiddle With Me
TTITLE9=Wayfaring Stranger
TTITLE10=New Camptown Races
TTITLE11=You Can't Bring Us Down Tonight
TTITLE12=We Should Only Have Time For Love
TTITLE13=Runaway Train
EXTD=
EXTT0=
EXTT1=
EXTT2=
EXTT3=
EXTT4=
EXTT5=
EXTT6=
EXTT7=
EXTT8=
EXTT9=
EXTT10=
EXTT11=
EXTT12=
EXTT13=
PLAYORDER=
